<svg width="22" height="16" viewBox="0 0 22 16" fill="none" xmlns="http://www.w3.org/2000/svg">
<g clip-path="url(#clip0_120_288)">
<path d="M5.27949 12.7255C3.43354 11.889 1.88728 10.5085 0.847839 8.76869H0.853492C2.58319 5.69931 6.3648 3.57393 10.7512 3.57393C11.8278 3.5723 12.9004 3.7033 13.945 3.96396" stroke="#939393" stroke-width="1.8" stroke-linecap="round" stroke-linejoin="round"/>
<path d="M16.6075 4.88559C18.508 5.72354 20.099 7.13468 21.1578 8.92156C19.4281 11.9853 15.6465 14.1163 11.2601 14.1163C10.0876 14.1183 8.92023 13.9624 7.78937 13.6528" stroke="#939393" stroke-width="1.8" stroke-linecap="round" stroke-linejoin="round"/>
<path d="M8.315 9.79221C7.64336 9.08105 7.27244 8.13791 7.27971 7.15975C7.28697 6.18159 7.67186 5.24407 8.354 4.54297C9.03613 3.84187 9.96275 3.43141 10.9403 3.39733C11.9179 3.36324 12.8709 3.70816 13.6002 4.36004L8.315 9.79221Z" fill="#939393"/>
<path d="M10.2708 10.7078C10.7257 10.8895 11.211 10.9835 11.7009 10.9848C12.1992 10.9855 12.6927 10.8879 13.1532 10.6976C13.6137 10.5072 14.0322 10.2279 14.3845 9.87553C14.7369 9.52318 15.0162 9.10475 15.2066 8.64424C15.3969 8.18373 15.4945 7.69018 15.4938 7.19188C15.4953 6.6788 15.3914 6.17088 15.1885 5.69958L10.2708 10.7078Z" fill="#939393"/>
<path d="M3.07507 14.9246L16.7318 1.07571" stroke="#939393" stroke-width="1.8" stroke-linecap="round" stroke-linejoin="round"/>
</g>
<defs>
<clipPath id="clip0_120_288">
<rect width="22" height="15.5447" fill="white" transform="translate(0 0.227661)"/>
</clipPath>
</defs>
</svg>
