<svg width="16" height="14" viewBox="0 0 16 14" fill="none" xmlns="http://www.w3.org/2000/svg">
<path fill-rule="evenodd" clip-rule="evenodd" d="M16 13.9091L8 0.0909119L0 13.9091H16ZM8.72727 11C8.72727 11.4017 8.40166 11.7273 8 11.7273C7.59834 11.7273 7.27273 11.4017 7.27273 11C7.27273 10.5983 7.59834 10.2727 8 10.2727C8.40166 10.2727 8.72727 10.5983 8.72727 11ZM8.00022 9.40927C8.40188 9.40927 8.7275 9.08366 8.7275 8.682V5.63654C8.7275 5.23488 8.40188 4.90927 8.00022 4.90927C7.59856 4.90927 7.27295 5.23488 7.27295 5.63654V8.682C7.27295 9.08366 7.59856 9.40927 8.00022 9.40927Z" fill="#D52F1A"/>
</svg>
